HIERARCHY
ROOT Hips
{
	OFFSET 0.000000 0.000000 0.000000
	CHANNELS 6 Xposition Yposition Zposition Zrotation Xrotation Yrotation
	JOINT RightUpLeg
	{
		OFFSET -10.032200 0.000000 0.000000
		CHANNELS 3 Zrotation Xrotation Yrotation
		JOINT RightLeg
		{
			OFFSET 0.000000 -40.977000 0.000000
			CHANNELS 3 Zrotation Xrotation Yrotation
			JOINT RightFoot
			{
				OFFSET 0.000000 -38.933200 0.000000
				CHANNELS 3 Zrotation Xrotation Yrotation
				JOINT RightToe
				{
					OFFSET 0.000000 -1.977400 9.184000
					CHANNELS 3 Zrotation Xrotation Yrotation
					JOINT RightToeEnd
					{
						OFFSET 0.000000 2.335600 6.099100
						CHANNELS 3 Zrotation Xrotation Yrotation
						End Site
						{
						    OFFSET 0.000000 1.788000 4.669400
						}
					}
				}
			}
		}
	}
	JOINT LeftUpLeg
	{
		OFFSET 10.032200 0.000000 0.000000
		CHANNELS 3 Zrotation Xrotation Yrotation
		JOINT LeftLeg
		{
			OFFSET 0.000000 -40.977000 0.000000
			CHANNELS 3 Zrotation Xrotation Yrotation
			JOINT LeftFoot
			{
				OFFSET 0.000000 -38.933200 0.000000
				CHANNELS 3 Zrotation Xrotation Yrotation
				JOINT LeftToe
				{
					OFFSET 0.000000 -1.977400 9.184000
					CHANNELS 3 Zrotation Xrotation Yrotation
					JOINT LeftToeEnd
					{
						OFFSET 0.000000 2.335600 6.099100
						CHANNELS 3 Zrotation Xrotation Yrotation
						End Site
						{
						    OFFSET 0.000000 1.788000 4.669400
						}
					}
				}
			}
		}
	}
	JOINT Spine
	{
		OFFSET 0.000000 16.960900 0.000000
		CHANNELS 3 Zrotation Xrotation Yrotation
		JOINT Spine1
		{
			OFFSET 0.000000 13.413900 0.000000
			CHANNELS 3 Zrotation Xrotation Yrotation
			JOINT Spine2
			{
				OFFSET 0.000000 10.384400 0.000000
				CHANNELS 3 Zrotation Xrotation Yrotation
				JOINT LeftShoulder
				{
					OFFSET 2.000000 10.384400 0.000000
					CHANNELS 3 Zrotation Xrotation Yrotation
					JOINT LeftArm
					{
						OFFSET 15.649100 0.000000 0.000000
						CHANNELS 3 Zrotation Xrotation Yrotation
						JOINT LeftForeArm
						{
							OFFSET 0.000000 -26.641600 0.000000
							CHANNELS 3 Zrotation Xrotation Yrotation
							JOINT LeftHand
							{
								OFFSET 0.000000 -23.740600 0.000000
								CHANNELS 3 Zrotation Xrotation Yrotation
								JOINT LeftFinger0
								{
									OFFSET 0.000000 -7.620900 0.000000
									CHANNELS 3 Zrotation Xrotation Yrotation
									End Site
									{
									    OFFSET 0.000000 -5.000000 0.000000
									}
								}
							}
						}
					}
				}
				JOINT RightShoulder
				{
					OFFSET -2.000000 10.384400 0.000000
					CHANNELS 3 Zrotation Xrotation Yrotation
					JOINT RightArm
					{
						OFFSET -15.649100 0.000000 0.000000
						CHANNELS 3 Zrotation Xrotation Yrotation
						JOINT RightForeArm
						{
							OFFSET 0.000000 -26.641600 0.000000
							CHANNELS 3 Zrotation Xrotation Yrotation
							JOINT RightHand
							{
								OFFSET 0.000000 -23.740600 0.000000
								CHANNELS 3 Zrotation Xrotation Yrotation
								JOINT RightFinger0
								{
									OFFSET 0.000000 -7.620900 0.000000
									CHANNELS 3 Zrotation Xrotation Yrotation
									End Site
									{
									    OFFSET 0.000000 -5.000000 0.000000
									}
								}
							}
						}
					}
				}
				JOINT Neck
				{
					OFFSET 0.000000 10.384400 0.000000
					CHANNELS 3 Zrotation Xrotation Yrotation
					JOINT Head
					{
						OFFSET 0.000000 10.146900 0.000000
						CHANNELS 3 Zrotation Xrotation Yrotation
						JOINT HeadTip
						{
							OFFSET 0.000000 10.000000 0.000000
							CHANNELS 3 Zrotation Xrotation Yrotation
							End Site
							{
							    OFFSET 0.000000 5.000000 0.000000
							}
						}
					}
				}
			}
		}
	}
}
MOTION
Frames:	4
Frame Time:	0.033332
-37.104200 86.407800 -60.129300 1.107269 2.194144 -13.059483 -17.688727 -23.810654 -28.254107 0.000000 43.977132 0.000000 6.280700 19.212847 -18.420026 -0.000000 -4.445346 -0.000000 0.000000 -0.000000 -0.000000 -0.222685 -16.742479 8.616607 0.000000 19.246077 -0.000000 1.630135 18.088335 -19.155310 -0.000000 1.760497 -0.000000 -0.000000 0.000000 0.000000 1.979455 14.683728 14.145959 0.000000 12.049007 0.000000 0.000000 0.000000 0.000000 -8.494693 -0.000000 19.784951 27.328895 23.758448 43.676721 -180.000037 -74.845101 180.000037 -34.880622 -18.588174 16.748666 -0.000000 0.000000 -0.000000 2.574205 -0.000000 -2.809720 -29.883017 4.600828 9.165572 -0.000224 -55.878882 -0.000119 -0.930898 25.177660 47.243699 0.000000 -0.000000 -0.000000 0.000000 0.000000 0.000000 -10.603702 26.834599 35.466689 -0.000000 0.000000 -0.000000 
-41.033100 86.278900 -58.626600 1.285874 1.485651 -9.588895 -21.650568 -20.701005 -31.718158 -0.000000 31.700055 -0.000000 6.461286 23.014801 -18.844563 0.000000 -2.039573 -0.000000 0.000000 0.000000 -0.000000 1.057906 -15.242746 8.456479 -0.000000 20.179658 -0.000000 0.933549 16.452393 -18.244774 0.000000 0.325805 -0.000000 0.000000 0.000000 0.000000 2.166428 14.773392 12.594901 -0.000000 11.954677 0.000000 -0.000000 0.000000 0.000000 -8.025145 -0.000000 19.521732 27.235097 23.425449 41.093862 -180.000037 -72.108673 -180.000037 -34.645702 -17.928233 16.566446 -0.000000 0.000000 0.000000 3.569697 0.000000 -3.329312 -29.953490 7.786301 8.773236 -0.000216 -54.820343 -0.000112 1.732662 27.462928 47.739538 -0.000000 -0.000000 -0.000000 -0.000000 0.000000 0.000000 -9.244874 26.512234 32.705153 -0.000000 -0.000000 0.000000 
-45.088400 85.823400 -57.217100 1.832283 0.809190 -6.410282 -24.713853 -17.124535 -35.001708 0.000000 19.818997 -0.000000 6.655197 30.503081 -14.965794 -0.000000 2.595751 -0.000000 -0.000000 -0.000000 -0.000000 2.385331 -14.477296 8.155949 0.000000 21.957692 -0.000000 -0.174646 14.771743 -17.073685 -0.000000 -1.393853 -0.000000 0.000000 0.000000 -0.000000 1.721103 14.881247 11.305599 0.000000 11.832784 0.000000 -0.000000 0.000000 -0.000000 -7.418222 0.000000 19.125861 27.406651 22.978096 39.052819 -180.000037 -69.573115 -180.000037 -32.980707 -17.660016 17.834220 -0.000000 -0.000000 0.000000 4.631274 -0.000000 -3.856522 -30.667318 10.484004 8.370375 -0.000227 -56.207718 -0.000121 3.238926 28.267714 47.268054 -0.000000 -0.000000 -0.000000 -0.000000 0.000000 -0.000000 -7.670317 26.047904 30.457745 0.000000 0.000000 0.000000 
-49.371300 85.134700 -55.998800 2.334142 0.260885 -3.237602 -26.600760 -13.781905 -35.378942 -0.000000 10.821779 -0.000000 9.584109 37.080868 -11.000100 -0.000000 8.136657 0.000000 -0.000000 -0.000000 0.000000 4.186036 -14.428295 7.392095 0.000000 24.215857 -0.000000 -1.677770 13.241767 -16.232712 -0.000000 -2.708993 -0.000000 -0.000000 0.000000 -0.000000 1.265080 15.197905 10.072170 -0.000000 11.659158 -0.000000 0.000000 -0.000000 0.000000 -6.434713 0.000000 18.631065 27.983299 21.696194 37.492505 180.000037 -67.985253 -180.000037 -30.395361 -17.857645 20.718128 0.000000 0.000000 -0.000000 5.299362 -0.000000 -4.037553 -31.310324 12.607232 7.816020 -0.000258 -59.478222 -0.000147 2.736990 27.423072 46.146297 -0.000000 0.000000 -0.000000 0.000000 -0.000000 0.000000 -6.124996 25.424249 28.505311 -0.000000 0.000000 0.000000 
